<?xml version="1.0" standalone="no"?>
<!DOCTYPE svg PUBLIC "-//W3C//DTD SVG 20010904//EN"
 "http://www.w3.org/TR/2001/REC-SVG-20010904/DTD/svg10.dtd">
<svg version="1.0" xmlns="http://www.w3.org/2000/svg"
 width="900.000000pt" height="900.000000pt" viewBox="0 0 900.000000 900.000000"
 preserveAspectRatio="xMidYMid meet">
<metadata>
Created by potrace 1.16, written by Peter Selinger 2001-2019
</metadata>
<g transform="translate(0.000000,900.000000) scale(0.100000,-0.100000)"
fill="#000000" stroke="none">
<path d="M3688 8990 c-112 -6 -134 -11 -193 -38 -89 -42 -169 -123 -190 -195
-29 -97 -34 -308 -39 -1597 -3 -707 -9 -1307 -14 -1333 -5 -26 -14 -53 -19
-58 -23 -23 -214 -27 -1491 -33 -743 -4 -1356 -11 -1398 -16 -93 -12 -156 -45
-223 -115 -76 -80 -90 -115 -103 -267 -17 -183 -17 -1493 0 -1676 14 -156 33
-201 117 -281 70 -66 121 -90 213 -101 42 -5 678 -11 1412 -15 1259 -7 1450
-11 1472 -33 25 -25 29 -200 34 -1427 3 -715 9 -1353 14 -1418 11 -137 31
-185 114 -269 111 -113 107 -113 1126 -113 883 0 904 1 999 47 66 32 164 133
179 186 31 104 34 232 41 1572 5 993 10 1372 19 1392 6 15 19 31 29 36 35 19
209 22 1493 27 712 4 1330 10 1372 15 98 12 164 45 239 120 71 70 86 115 99
296 12 166 12 1482 0 1638 -11 146 -35 203 -125 292 -55 56 -66 63 -130 77
-116 26 -257 29 -1615 36 -1042 5 -1310 9 -1328 19 -13 7 -28 25 -34 40 -9 20
-14 397 -19 1387 -7 1328 -11 1475 -40 1576 -17 57 -114 156 -190 193 -51 24
-72 28 -220 36 -189 11 -1412 10 -1601 0z"/>
</g>
</svg>
