<?xml version="1.0" standalone="no"?>
<!DOCTYPE svg PUBLIC "-//W3C//DTD SVG 20010904//EN"
 "http://www.w3.org/TR/2001/REC-SVG-20010904/DTD/svg10.dtd">
<svg version="1.0" xmlns="http://www.w3.org/2000/svg"
 width="512.000000pt" height="512.000000pt" viewBox="0 0 512.000000 512.000000"
 preserveAspectRatio="xMidYMid meet">
<metadata>
Created by potrace 1.16, written by Peter Selinger 2001-2019
</metadata>
<g transform="translate(0.000000,512.000000) scale(0.100000,-0.100000)"
fill="#000000" stroke="none">
<path d="M929 5106 c-100 -38 -130 -64 -491 -425 -338 -338 -369 -371 -400
-436 -31 -65 -33 -77 -33 -175 0 -187 -42 -134 694 -872 l635 -638 -635 -637
c-736 -739 -694 -686 -694 -873 0 -98 2 -110 33 -175 31 -65 62 -99 400 -437
338 -338 372 -369 437 -400 65 -31 77 -33 175 -33 187 0 134 -42 873 694 l637
635 638 -635 c738 -736 685 -694 872 -694 98 0 110 2 175 33 65 31 99 62 437
400 338 338 369 372 400 437 31 65 33 77 33 175 0 187 42 134 -694 872 l-635
638 635 638 c736 738 694 685 694 872 0 98 -2 110 -33 175 -31 65 -62 99 -400
437 -338 338 -372 369 -437 400 -65 31 -77 33 -175 33 -187 0 -134 42 -872
-694 l-638 -635 -637 635 c-732 729 -686 692 -863 696 -61 2 -108 -2 -131 -11z"/>
</g>
</svg>
